<svg id="Layer_1" data-name="Layer 1" xmlns="http://www.w3.org/2000/svg" viewBox="0 0 328.59 119.59"><defs><style>.cls-1{fill:#f7900a;}.cls-2{fill:#b5834d;}.cls-3{fill:#e3e3e3;}</style></defs><title>logo orange</title><path class="cls-1" d="M32.62,73.7a3.8,3.8,0,0,1-3,.87c-1.37,0-2.28-.21-3.05-.21a1.73,1.73,0,0,0-1.32.46C22.92,77.16,13.57,98.7,12.5,101.35c-1.07,2.48-5.23,2.89-8.59,2.89-2.64,0-3.91-1-3.91-1.78A.81.81,0,0,1,.15,102c.26-.36,13.32-24.8,13.32-27.09,0-.4-1-.56-2.24-.56A16.78,16.78,0,0,0,7,74.87a1.19,1.19,0,0,1-.56.1c-.35,0-.56-.2-.56-.76S6.5,71,9.4,68.11c1.12-1.11,2.49-1.42,5.08-1.42,4.68,0,8.18.56,11.13.56,8.69,0,9.09-.61,9.55-.61.1,0,.61,0,.61.66C35.77,69.69,33.54,72.84,32.62,73.7Z"/><path class="cls-1" d="M36,86.56c.5,0,1.06,0,1.57,0s.71-.46.71-1c0-1.42-1.57-1.77-3.81-1.77-4.57,0-6.1,1-7,1-.51,0-.56-.66-.56-.86a5.52,5.52,0,0,1,1.57-3.46c1.48-1.52,4.22-2.08,7.88-2.08,8.18,0,11.23,2.9,11.23,6.66,0,3.55-5.84,11.89-5.84,17.88,0,3.25,1.06,4.42,1.06,4.42a.78.78,0,0,1,.16.46c0,.91-2.19.91-2.44.91-4.32,0-8.18-2.23-8.18-5.89,0-3.2,2.28-7,3.35-9.5a1.6,1.6,0,0,0,.1-.41c0-.3-.3-.4-1.22-.4-4.22,0-5.54,1.88-5.54,3.55a1.46,1.46,0,0,0,1.58,1.63h.35c.41,0,.61,0,.61.66,0,1.57-1.72,4.83-6.5,4.83A5.18,5.18,0,0,1,19.46,98C19.46,89.3,28.61,86.56,36,86.56Z"/><path class="cls-1" d="M45,100c0-2.54,2.84-6,4.52-6,1.37,0,.92,3,6.05,3,2.49,0,3.81-.81,3.81-2,0-3.15-7.83-2-7.83-7.77,0-3.61,3.81-9.4,15.65-9.4,5.14,0,6.35,1.83,6.35,4.27,0,1-.25,1.67-1,1.67-.56,0-1.83-.15-2.64-.15-3.2,0-5.85.86-5.85,2.74,0,2.49,6.1,2.39,6.1,7.52s-5.23,10.42-15.6,10.42C47.56,104.24,45,102.06,45,100Z"/><path class="cls-1" d="M78.2,104.75c-.1.46,0,1-1.78,1-3.51,0-5.44-2.14-5.44-4.53,0-2.84,6.46-12.85,6.46-15.09,0-.25-.36-.3-1-.3H75.4c-.45,0-.61-.26-.61-.71A8.09,8.09,0,0,1,77,80.87c1.47-1.48,3.45-.46,3.86-1.22a19.18,19.18,0,0,0,1.73-6.4,15.42,15.42,0,0,0-.41-3.1c0-.66.81-.82,2.09-.82,2.69,0,6.75,1.53,6.75,4.83,0,2-1.72,4.73-1.72,5.49,0,.3.4.35.91.35a17.88,17.88,0,0,0,2-.1c.36,0,.61.1.61.51a8.58,8.58,0,0,1-2.44,4.73,2.43,2.43,0,0,1-1.78.61c-.45,0-.91-.06-1.32-.06a1.13,1.13,0,0,0-1,.41S78.86,102.06,78.2,104.75Z"/><path class="cls-1" d="M90.7,119.59c-7.37,0-9.51-5.34-9.51-7.68s1-4.42,2.09-4.42,1.42,3,7.47,3a8.64,8.64,0,0,0,6.81-3,26,26,0,0,0,3.55-4.93,14.36,14.36,0,0,0,1.68-3.45v-.15a.19.19,0,0,0-.2-.21,1,1,0,0,0-.26,0c-3.76,3.15-6.3,3.76-8.79,3.76-3.05,0-4.67-2.08-4.67-4.93,0-2.13,1.72-5.48,4.27-11,1.21-2.64,2.54-5.89,2.54-8.13,0-.86,0-1.42,1.93-1.42,2.18,0,4.62.45,5.84,1.67a3,3,0,0,1,.86,2.19c0,2.44-4.52,8.89-4.52,11.38a1.38,1.38,0,0,0,1.42,1.42c5.09,0,7.88-8.58,8.69-11s2.09-3.51,7.62-3.51c1.17,0,3,.15,3,1.22a1.91,1.91,0,0,1-.25.76c-.61,1.17-7.47,14.59-10.21,21.39C106.5,110.69,102.48,119.59,90.7,119.59Z"/><path class="cls-1" d="M221,107.39a8.75,8.75,0,0,1-7.27-4.06.27.27,0,0,0-.26-.16c-.15,0-.25.11-.5.21a9.69,9.69,0,0,1-3.71.66c-6.2,0-9.66-3.86-9.66-9.76s3.41-15.55,10-21.85c4.73-4.52,10-5.94,18-5.94,3.91,0,8.18.51,8.18,2a17,17,0,0,1-3.56,7.72c-1.16,1.17-2.18,2.29-6.09,2.29-.26,0-2.44,0-2.44-1.07,0-.56.91-1.72.91-2.49s-.66-1.47-2.18-1.47c-6.2,0-11.94,13.62-11.94,18.85,0,2,.81,3.56,3.3,3.56a4.61,4.61,0,0,0,3-.87c1.27-1.22,3.25-6,3.25-8.38a11.31,11.31,0,0,0-.26-2,.71.71,0,0,1,.26-.51c.56-.56,2.34-1.12,5.94-1.12,3.31,0,6.46.41,6.46,1.63a.64.64,0,0,1-.1.41c-1,1.77-8.8,17.42-10,21.54C222,107.39,221,107.39,221,107.39Z"/><path class="cls-1" d="M242.11,92.3a1.33,1.33,0,0,0,1.42,1.37c5.09,0,7.68-8.58,8.64-11,1.07-2.54,2.09-3.56,7.68-3.56,1.16,0,3,.25,3,1.32a1.4,1.4,0,0,1-.2.71c-.91,1.68-9,16.36-9,22,0,3.26,1.06,4.42,1.06,4.42a.88.88,0,0,1,.16.46c0,.92-2.19.92-2.44.92-4.32,0-8.18-2.44-8.18-6.1a12.8,12.8,0,0,1,.86-4c0-.16-.1-.16-.2-.16a1.15,1.15,0,0,0-.26,0c-3.15,3.26-6.86,4.58-9.3,4.58-3.1,0-4.67-2.24-4.67-5.08,0-2.14,2.24-6.15,4.83-11.64,1.27-2.64,2.54-5.89,2.54-8.13,0-.86,0-1.42,1.93-1.42,2.18,0,4.67.45,5.89,1.67a3.14,3.14,0,0,1,.82,2.19C246.69,83.36,242.11,89.81,242.11,92.3Z"/><path class="cls-1" d="M276.77,80.77a8.5,8.5,0,0,1-1,2.13c-2.29,4.32-8.54,15.4-8.54,20.17,0,3.25,1.07,4.42,1.07,4.42a.86.86,0,0,1,.15.46c0,.92-2.18.92-2.39.92-4.37,0-8.23-2.44-8.23-6.1,0-4.42,6.71-16.36,7.83-20.17.61-2,2.39-3.26,7.82-3.26C274,79.34,276.77,79.45,276.77,80.77Zm-2.14-5c2.24,0,6.25-1.38,6.25-4.32,0-1.68-1.83-3.15-4.62-3.15-3.1,0-6.25,1.93-6.25,4.32C270,74.31,271.84,75.74,274.63,75.74Z"/><path class="cls-1" d="M296.23,80q.15,0,.3-.3c1.88-4.07,3.1-7.93,3.1-10.42a13,13,0,0,0-.35-3.15c0-.66.81-.76,2.08-.76,2.74,0,7.47,1.83,7.47,5.13,0,2.19-1.63,5.44-3.61,9.45s-9.15,17.69-9.15,23.07c0,3.25,1.07,4.42,1.07,4.42a.84.84,0,0,1,.15.46c0,.91-2.18.91-2.44.91-4.31,0-8.18-2.23-8.18-5.89,0-4.37,5.85-13.06,5.85-16.21,0-.91-.92-1.07-1.43-1.07-4.57,0-7.67,4.32-7.67,7.52,0,1.94,1.48,2,2.44,2h.41c.4,0,.61,0,.61.61,0,2.08-2.7,7.21-8.49,7.21-3.81,0-4.83-3.61-4.83-5.69,0-6.86,6.46-18.19,18.14-18.19A10.23,10.23,0,0,1,296.23,80Z"/><path class="cls-1" d="M312.13,95.86c0,1.88,2.18,2.44,5,2.44,4.22,0,5.13-1.22,5.79-1.22a.6.6,0,0,1,.66.61,6.71,6.71,0,0,1-2.08,4.06c-1.93,1.93-4.32,2.69-8.49,2.69-7.87,0-10.51-4.47-10.51-8.94,0-5.38,4-16.92,18.29-16.92,2.49,0,7.77,1.07,7.77,6.2,0,6.86-7.42,10.72-16.11,10.72C312.23,95.5,312.13,95.86,312.13,95.86Zm6.3-11.44a5.76,5.76,0,0,0-5.33,4.78c0,.46.3.51.86.51,3.5,0,6.3-1.58,6.3-4C320.26,84.78,319.45,84.42,318.43,84.42Z"/><path class="cls-2" d="M135.22,17.86c.83-4.67,5.33-9.11,9.35-10.57,7.29-2.66,12.43.78,17.27,6.4,2.46,2.85,3.71,1.81,1.19-1.11C159,7.9,154.16,2.2,147.85,1.24c-6.47-1-15.76,4.14-17,11.32C130.54,14.19,135.22,17.86,135.22,17.86Z"/><path class="cls-2" d="M136,19.84l-1.37-1.08c-2-1.53-5.17-4.39-4.81-6.4C131.16,4.5,141-.93,148,.13c6.61,1,11.62,6.82,15.65,11.5l.17.19c2.13,2.48,1.83,3.71,1.2,4.31s-1.72.93-4-1.68C155.47,8,150.8,6.21,144.92,8.35c-3.56,1.3-7.88,5.38-8.64,9.71ZM146.41,2.25c-5.85-.1-13.48,4.54-14.53,10.51.05.47,1.25,1.83,2.75,3.16a17.21,17.21,0,0,1,9.6-9.69,13.36,13.36,0,0,1,13,1.63c-2.8-2.73-5.92-5-9.55-5.51A10.54,10.54,0,0,0,146.41,2.25Z"/><path class="cls-2" d="M131.85,13C115.2,5.6,100.26,27.43,108.5,43.06c2.92,5.53,7.74,10.59,13.44,12.82,7.08,2.77,16.42-1.45,21.44-6.94.88-1-5.81-4-6.53-3.18-3.29,3.6-5.55,3.9-10.06,5.32-8.57,2.7-16.45-4.47-16.5-13.65-.06-12.5,13-24.69,24.64-19.55,1.3.57-1.77-4.32-3.08-4.9Z"/><path class="cls-2" d="M126.56,57.88a14.36,14.36,0,0,1-5-1c-5.5-2.15-10.73-7.13-14-13.32-5-9.47-1.84-20,3.5-26.26,5.75-6.72,13.67-8.74,21.2-5.4,1.28.57,4.56,4.81,3.94,6.33a1.2,1.2,0,0,1-1.69.63c-4.47-2-9.65-1.27-14.22,1.93a20.91,20.91,0,0,0-8.94,16.59,13.72,13.72,0,0,0,5.09,10.76,10.71,10.71,0,0,0,10,1.82l1.65-.51c3.41-1,5.45-1.41,8.12-4.33,1.4-1.53,6.65,1.23,7.64,2.22a1.62,1.62,0,0,1,.26,2.32C140,54.25,133.06,58,126.56,57.88Zm-12.35-8.71a23,23,0,0,0,8.1,5.66c6.32,2.47,14.84-1.11,19.77-6.11a13.75,13.75,0,0,0-4.65-2c-3,3.17-5.27,3.87-8.72,4.91l-1.62.5A12.88,12.88,0,0,1,115.17,50C114.84,49.73,114.52,49.46,114.21,49.17Zm11.15-36.54c-4.65-.08-9.14,2.06-12.7,6.22-5.72,6.69-7,16.42-3.22,23.67a30.31,30.31,0,0,0,2.44,3.89,16.65,16.65,0,0,1-2.66-9A23.23,23.23,0,0,1,119.12,19c4.47-3.14,9.5-4.15,14.1-2.89A7.92,7.92,0,0,0,131.43,14,15.73,15.73,0,0,0,125.36,12.63Z"/><path class="cls-2" d="M140,51.94c1.61-1.31,6.17-4.43,8.52-4.09a35.87,35.87,0,0,1,5.73,1.8c3.26,1.11,6.5,2.31,9.79,3.35a65.62,65.62,0,0,0,15.35,3.13c9.79.67,19.07-.9,24.78-10.22,5.32-8.67,4.43-22.28-2.44-29.86-7.16-7.88-21.18-9.86-30.92-8.66-3.07.38-1.17,3,1.13,2.69A35,35,0,0,1,190.78,13c6.18,2.79,9.71,6.87,11.42,13.67,3,12.05-3.41,26.11-16.19,26.85-11.59.68-22-3.93-32.88-7.29-5.39-1.67-11.08-5.51-18.19,1.11l-.27.26c-1.47,1.42,5.3,4.5,5.93,2.85Z"/><path class="cls-2" d="M182.33,57.38c-1,0-2-.06-3-.13a66.74,66.74,0,0,1-15.6-3.18c-2.06-.65-4.13-1.38-6.14-2.08L154,50.72c-.52-.17-1-.37-1.58-.57a21,21,0,0,0-4-1.19c-1.66-.24-5.55,2.09-7.72,3.87L137.26,55s-3-3-3.74-6.31c-.17-.74-.43-1,.1-1.51L135,46.13c6.44-6,11.12-3.64,15.91-1.87.88.32,1.71.63,2.54.88,2.16.67,4.34,1.4,6.45,2.11,8.73,2.91,17,5.66,26.07,5.14a15.49,15.49,0,0,0,12.13-7A23.25,23.25,0,0,0,201.17,27c-1.61-6.37-4.84-10.23-10.81-12.93a33.87,33.87,0,0,0-18.27-2.82,3.78,3.78,0,0,1-3.48-1.42,2.11,2.11,0,0,1-.29-2,2.66,2.66,0,0,1,2.4-1.46c10.59-1.3,24.53,1,31.81,9s8.3,21.89,2.57,31.24S189.88,57.52,182.33,57.38ZM148.25,46.7l.45,0a21.2,21.2,0,0,1,4.39,1.3c.51.19,1,.38,1.51.54,1.24.42,2.46.85,3.69,1.28,2,.7,4.05,1.42,6.09,2.06A63.25,63.25,0,0,0,179.49,55c11.85.82,19.2-2.18,23.81-9.7,5.14-8.39,4.08-21.43-2.32-28.48C194.24,9.4,180.7,7.3,171,8.5a4.08,4.08,0,0,0-.49.1,1.92,1.92,0,0,0,1.37.37,35.79,35.79,0,0,1,19.35,3c6.56,3,10.27,7.4,12,14.41a25.69,25.69,0,0,1-3.41,20.36,17.75,17.75,0,0,1-13.75,7.9c-9.49.56-18.31-2.39-26.83-5.25-2.1-.7-4.26-1.42-6.41-2.08-.88-.28-1.78-.61-2.64-.93-4.64-1.71-9-3.33-14.5,1.77.77.81,3.42,1.91,4.14,1.63a.42.42,0,0,0-.22.26l.72.3C142,49.08,145.69,46.66,148.25,46.7ZM139.61,50Z"/><path class="cls-2" d="M130.46,55.51a24.77,24.77,0,0,1,0,17c-.71,2,4.85,6.43,6.69,5.5,6.57-3.31,12.27-4.9,19.66-4.82,6.32.07,16.69-.89,22.25,2.54.49.3,3.9,2.11,3.84.26-.15-4.69-.14-9.27,3.25-12.9,1.67-1.79-5.1-7.67-6.94-5.7-3.6,3.86-3.78,8.81-3.62,13.85l3.84.27c-6.88-4.25-15.13-4.26-23-4.55-9.49-.35-16.74.46-25.36,4.81l6.69,5.5A26.8,26.8,0,0,0,137.61,59a8.21,8.21,0,0,0-4.33-4.4c-.87-.37-3.53-1.1-2.82.89Z"/><path class="cls-2" d="M129.24,85.43c-.21-.46,1.24-1.21,2.65.35a40.29,40.29,0,0,1,4.46,6.88,5.63,5.63,0,0,0,6.35,2.87l.11,0c3.05-.86,10.61-9.57,13.57-2.22,2.55,6.34-7.14,19.74-20.55,11.07-7.42-4.8-6.17-10.78-6.13-15.86A7.23,7.23,0,0,0,129.24,85.43Z"/><circle class="cls-2" cx="148.04" cy="82.85" r="3.23"/><circle class="cls-2" cx="167.35" cy="83.19" r="3.23"/><path class="cls-2" d="M186.53,86.46c.23-.46-1.19-1.25-2.65.25a40.69,40.69,0,0,0-4.71,6.72,5.63,5.63,0,0,1-6.44,2.64l-.12,0c-3-1-10.26-9.94-13.48-2.7-2.77,6.24,6.43,20,20.14,11.8,7.59-4.53,6.55-10.55,6.7-15.63A7.31,7.31,0,0,1,186.53,86.46Z"/><path class="cls-3" d="M0,55.14"/></svg>